# xmcd
#
# Track frame offsets: 
#        150
#        4106
#        14488
#        19636
#        24686
#        33034
#        36024
#        42283
#        53944
#        58686
#        67468
#        73921
#        82153
#        91521
#        103956
#        107862
#        110902
#        121286
#        124972
#        137298
#        142845
#        156810
#        164139
#        171404
#        179416
#        181483
#        191016
#        198171
#        203572
#        206001
#        207076
#        211581
#        225251
#        233338
#        245092
#        249986
#        257680
#        261668
#        269180
#        273997
#        281685
#        290912
#        299392
#        308202
#
# Disc length: 4200 seconds
#
# Revision: 0
# Processed by: cddbd v1.5.2PL0 Copyright (c) Steve Scherf et al.
# Submitted via: ExactAudioCopy v0.99pb5
#
DISCID=a310662c
DTITLE=Frank Einstein - ChILStrumentals Vol.4
DYEAR=2010
DGENRE=Rap
TTITLE0=ChILStru 01
TTITLE1=ChILStru 02
TTITLE2=ChILStru 03
TTITLE3=ChILStru 04
TTITLE4=ChILStru 05
TTITLE5=ChILStru 06
TTITLE6=ChILStru 07
TTITLE7=ChILStru 08
TTITLE8=ChILStru 09
TTITLE9=ChILStru 10
TTITLE10=ChILStru 11
TTITLE11=ChILStru 12
TTITLE12=ChILStru 13
TTITLE13=ChILStru 14
TTITLE14=ChILStru 15
TTITLE15=ChILStru 16
TTITLE16=ChILStru 17
TTITLE17=ChILStru 18
TTITLE18=ChILStru 19
TTITLE19=ChILStru 20
TTITLE20=ChILStru 21
TTITLE21=ChILStru 22
TTITLE22=ChILStru 23
TTITLE23=ChILStru 24
TTITLE24=ChILStru 25
TTITLE25=ChILStru 26
TTITLE26=ChILStru 27
TTITLE27=ChILStru 28
TTITLE28=ChILStru 29
TTITLE29=ChILStru 30
TTITLE30=ChILStru 31
TTITLE31=ChILStru 32
TTITLE32=ChILStru 33
TTITLE33=ChILStru 34
TTITLE34=ChILStru 35
TTITLE35=ChILStru 36
TTITLE36=ChILStru 37
TTITLE37=ChILStru 38
TTITLE38=ChILStru 39
TTITLE39=ChILStru 40
TTITLE40=ChILStru 41
TTITLE41=ChILStru 42
TTITLE42=ChILStru 43
TTITLE43=ChILStru 44
EXTD=
EXTT0=
EXTT1=
EXTT2=
EXTT3=
EXTT4=
EXTT5=
EXTT6=
EXTT7=
EXTT8=
EXTT9=
EXTT10=
EXTT11=
EXTT12=
EXTT13=
EXTT14=
EXTT15=
EXTT16=
EXTT17=
EXTT18=
EXTT19=
EXTT20=
EXTT21=
EXTT22=
EXTT23=
EXTT24=
EXTT25=
EXTT26=
EXTT27=
EXTT28=
EXTT29=
EXTT30=
EXTT31=
EXTT32=
EXTT33=
EXTT34=
EXTT35=
EXTT36=
EXTT37=
EXTT38=
EXTT39=
EXTT40=
EXTT41=
EXTT42=
EXTT43=
PLAYORDER=
